<svg width="108mm" height="108mm" version="1.1" viewBox="0 0 108 108" xmlns="http://www.w3.org/2000/svg">
	<g transform="matrix(.045784 0 0 .045784 32.024 72.272)">
		<path d="m280-240h80v-80h80v-80h-80v-80h-80v80h-80v80h80zm240-140h240v-60h-240zm0 120h160v-60h-160zm-360 180q-33 0-56.5-23.5t-23.5-56.5v-440q0-33 23.5-56.5t56.5-23.5h200v-120q0-33 23.5-56.5t56.5-23.5h80q33 0 56.5 23.5t23.5 56.5v120h200q33 0 56.5 23.5t23.5 56.5v440q0 33-23.5 56.5t-56.5 23.5zm0-80h640v-440h-200q0 33-23.5 56.5t-56.5 23.5h-80q-33 0-56.5-23.5t-23.5-56.5h-200zm280-440h80v-200h-80z"/>
	</g>
</svg>
