<svg width="108mm" height="108mm" version="1.1" viewBox="0 0 108 108"
    xmlns="http://www.w3.org/2000/svg">
    <defs>
        <linearGradient id="linearGradient2" x2="108" y1="108" gradientUnits="userSpaceOnUse">
            <stop style="stop-color:#00d800" offset="0" />
            <stop style="stop-color:#009700" offset="1" />
        </linearGradient>
    </defs>
    <rect width="108" height="108"
        style="fill:url(#linearGradient2);paint-order:markers stroke fill;stroke-linecap:round;stroke-linejoin:round" />
    <path
        d="m41.754 66.049h4.8983v-4.8983h4.8983v-4.8983h-4.8983v-4.8983h-4.8983v4.8983h-4.8983v4.8983h4.8983zm14.695-8.572h14.695v-3.6737h-14.695zm0 7.3475h9.7966v-3.6737h-9.7966zm-22.042 11.021q-2.0206 0-3.4594-1.4389-1.4389-1.4389-1.4389-3.4594v-26.941q0-2.0206 1.4389-3.4594 1.4389-1.4389 3.4594-1.4389h12.246v-7.3475q0-2.0206 1.4389-3.4594 1.4389-1.4389 3.4594-1.4389h4.8983q2.0206 0 3.4594 1.4389 1.4389 1.4389 1.4389 3.4594v7.3475h12.246q2.0206 0 3.4594 1.4389 1.4389 1.4389 1.4389 3.4594v26.941q0 2.0206-1.4389 3.4594-1.4389 1.4389-3.4594 1.4389zm0-4.8983h39.187v-26.941h-12.246q0 2.0206-1.4389 3.4594-1.4389 1.4389-3.4594 1.4389h-4.8983q-2.0206 0-3.4594-1.4389-1.4389-1.4389-1.4389-3.4594h-12.246zm17.144-26.941h4.8983v-12.246h-4.8983z"
        style="stroke-width:.061229" />
</svg>
