<svg width="24px" height="24px" fill="#5f6368" version="1.1" viewBox="0 -960 960 960"
    xmlns="http://www.w3.org/2000/svg">
    <path
        d="m-1019.7-70v-80h520v80zm40-120q0-81 51-141.5t129-74.5v-25q0-17 11.5-28.5t28.5-11.5 28.5 11.5 11.5 28.5v25q77 14 128.5 74.5t51.5 141.5zm105-81h228q-19-27-48.5-43.5t-64.5-16.5q-36 0-66 16.5t-49 43.5zm114 0m-619-159v-440h240v58l280-78 320 100v40q0 50-35 85t-85 35h-80v24q0 25-14.5 45.5t-37.5 29.5l-270 101zm80-80h80v-280h-80zm160 0h64l232-85q11-4 17.5-13.5t6.5-21.5h-71l-117 38-24-76 125-42h247q9 0 22.5-6.5t13.5-15.5l-238-74-278 76z" />
    <path
        d="m443.76-476.43-85.737 85.737c4.13-4.1321 8.4911-7.8655 13.037-11.27a122.76 121.22 45 0 0-13.037 11.27 122.76 121.22 45 0 0 1.1048 172.47 122.76 121.22 45 0 0 172.52 1.1601 122.76 121.22 45 0 0-1.1048-172.58 122.76 121.22 45 0 0-13.203-11.435 122.76 121.22 45 0 0-14.695-9.5017 122.76 121.22 45 0 0-15.855-7.3473 122.76 121.22 45 0 0-16.462-4.9718c5.5633 1.2538 11.076 2.9355 16.462 4.9718 5.4156 2.0472 10.707 4.5098 15.855 7.3473 5.0598 2.7891 9.9796 5.9497 14.695 9.5017 4.5956 3.4622 9.0148 7.2487 13.203 11.435zm26.075 53.475a122.76 121.22 45 0 0-15.91-2.4307c5.3517 0.46362 10.637 1.2647 15.91 2.4307zm-17.954-2.5964a122.76 121.22 45 0 0-16.186-0.0553c5.3767-0.33442 10.803-0.32016 16.186 0.0553zm-16.794 0a122.76 121.22 45 0 0-33.588 7.0711 122.76 121.22 45 0 0-15.689 7.071c5.079-2.7462 10.336-5.1073 15.689-7.071 10.85-3.9807 22.159-6.3027 33.588-7.0711zm-49.387 14.253a122.76 121.22 45 0 0-14.529 9.2255c4.6504-3.4727 9.5274-6.513 14.529-9.2255z"
        style="-inkscape-stroke:none;fill:#f0f;font-variation-settings:normal;paint-order:markers stroke fill;stroke-linecap:round;stroke-linejoin:round;stroke-width:83.097" />
    <path d="m924.86-662.52h-667.14s-27.137 0.68302-27.137 24c0 0 0 158.52 172.28 158.52h522"
        style="-inkscape-stroke:none;fill:#f0f;font-variation-settings:normal;paint-order:markers stroke fill;stroke-linecap:round;stroke-linejoin:round;stroke-width:83.097" />
</svg>
