<svg id="vector" width="108" height="108" version="1.1" viewBox="0 0 108 108"
    xmlns="http://www.w3.org/2000/svg">
    <defs>
        <linearGradient id="linearGradient5" x2="108" y1="108"
            gradientTransform="translate(-41.764 62.936)" gradientUnits="userSpaceOnUse">
            <stop stop-color="#00D800" style="stop-color:#0daeff" offset="0" />
            <stop stop-color="#009700" style="stop-color:#37ecff" offset="1" />
        </linearGradient>
    </defs>
    <rect width="108" height="108" ry="15.081"
        style="fill:url(#linearGradient5);paint-order:markers stroke fill" />
    <g transform="matrix(.090214 0 0 .090214 10.697 97.303)" style="fill:#5f6368">
        <path
            d="m558.68-820.18 179.92 642.42s6.5937 26.29-15.859 32.578c0 0-152.6 42.77-199.06-123.12l-140.78-502.66zm-214.61 437.34c19.743 0.3989 39.654 5.5381 58.125 15.938 17.368 9.7985 8.2574 4.6576 26.094 14.688s80.938 45.469 80.938 45.469l-59.453 105.7c-32.829 58.314-107.33 78.68-166.41 45.469-59.109-33.211-80.454-107.49-47.656-165.86 22.564-40.142 64.925-62.284 108.36-61.406z"
            style="fill:none;font-variation-settings:normal;paint-order:markers stroke fill;stroke-linecap:round;stroke-linejoin:round;stroke-width:79.08;stroke:#000" />
    </g>
</svg>
