<svg width="24px" height="24px" fill="#5f6368" version="1.1" viewBox="0 -960 960 960"
    xmlns="http://www.w3.org/2000/svg">
    <path
        d="m558.77-820.27 179.92 642.42s6.5937 26.368-15.859 32.656c0 0-152.6 42.692-199.06-123.2l-140.78-502.66zm-214.61 437.34c19.743 0.39888 39.654 5.6162 58.125 16.016 17.368 9.7985 26.095 14.616 26.094 14.609l80.938 45.547-54.219 96.328c-2e-3 -2e-5 -1.7456 3.0858-5.2344 9.2969-32.829 58.314-107.33 78.68-166.41 45.469-59.109-33.211-80.454-107.41-47.656-165.78 22.564-40.142 64.925-62.362 108.36-61.484z"
        style="-inkscape-stroke:none;fill:#000;font-variation-settings:normal;paint-order:markers stroke fill;stroke-linecap:round;stroke-linejoin:round;stroke-width:83.097" />
</svg>
